<svg width="69" height="69" viewBox="0 0 69 69" fill="none" xmlns="http://www.w3.org/2000/svg">
<circle cx="34.5" cy="34.5" r="34.5" fill="#252836"/>
<g clip-path="url(#clip0_74_781)">
<path d="M40.6886 34.9513C40.0311 31.642 43.1722 29.7011 43.1722 29.7011C43.1722 29.7011 41.9484 27.9305 39.8916 27.475C37.8358 27.0185 36.8069 27.5889 35.78 28.0166C34.7521 28.4455 34.2392 28.4455 34.2392 28.4455C32.7559 28.4455 31.6715 26.8749 28.8454 27.5899C26.8984 28.0813 24.8487 30.3289 24.4784 33.0115C24.1081 35.6951 24.9072 39.1193 26.448 41.7731C27.9888 44.429 29.5584 45.4272 30.6724 45.4559C31.7864 45.4836 32.8985 44.6578 34.2392 44.4567C35.581 44.2577 36.4068 44.943 37.7229 45.3133C39.0339 45.6826 39.4935 45.34 41.0036 44.0556C42.5177 42.7713 43.8882 39.0875 43.8882 39.0875C43.8882 39.0875 41.3462 38.2627 40.6886 34.9513Z" fill="white"/>
<path d="M37.7776 25.334C39.2342 23.8497 38.7408 21.5518 38.7408 21.5518C38.7408 21.5518 36.6953 21.9108 35.3248 23.3367C33.9553 24.7636 34.182 27.0174 34.182 27.0174C34.182 27.0174 36.3209 26.8174 37.7776 25.334Z" fill="white"/>
</g>
<defs>
<clipPath id="clip0_74_781">
<rect width="23.9047" height="23.9047" fill="white" transform="translate(22.1865 21.5518)"/>
</clipPath>
</defs>
</svg>
