<svg width="26" height="26" viewBox="0 0 26 26" fill="none" xmlns="http://www.w3.org/2000/svg">
<rect width="26" height="26" rx="5" fill="#7A8380" fill-opacity="0.21"/>
<path d="M10.0833 14.2717V7.75001C10.0833 7.5953 10.0219 7.44692 9.91247 7.33753C9.80308 7.22813 9.65471 7.16667 9.5 7.16667C9.34529 7.16667 9.19691 7.22813 9.08752 7.33753C8.97812 7.44692 8.91666 7.5953 8.91666 7.75001V14.2717C8.57882 14.3943 8.28693 14.618 8.08065 14.9123C7.87438 15.2066 7.76372 15.5573 7.76372 15.9167C7.76372 16.2761 7.87438 16.6268 8.08065 16.9211C8.28693 17.2154 8.57882 17.4391 8.91666 17.5617V18.25C8.91666 18.4047 8.97812 18.5531 9.08752 18.6625C9.19691 18.7719 9.34529 18.8333 9.5 18.8333C9.65471 18.8333 9.80308 18.7719 9.91247 18.6625C10.0219 18.5531 10.0833 18.4047 10.0833 18.25V17.5617C10.4212 17.4391 10.7131 17.2154 10.9193 16.9211C11.1256 16.6268 11.2363 16.2761 11.2363 15.9167C11.2363 15.5573 11.1256 15.2066 10.9193 14.9123C10.7131 14.618 10.4212 14.3943 10.0833 14.2717ZM9.5 16.5C9.38462 16.5 9.27184 16.4658 9.17591 16.4017C9.07998 16.3376 9.00522 16.2465 8.96107 16.1399C8.91691 16.0333 8.90536 15.916 8.92787 15.8029C8.95038 15.6897 9.00594 15.5858 9.08752 15.5042C9.1691 15.4226 9.27304 15.3671 9.38619 15.3445C9.49935 15.322 9.61664 15.3336 9.72323 15.3777C9.82982 15.4219 9.92092 15.4967 9.98502 15.5926C10.0491 15.6885 10.0833 15.8013 10.0833 15.9167C10.0833 16.0714 10.0219 16.2198 9.91247 16.3292C9.80308 16.4385 9.65471 16.5 9.5 16.5Z" fill="#343333"/>
<path d="M18.25 13.5833C18.249 13.2223 18.1363 12.8704 17.9274 12.5759C17.7186 12.2814 17.4237 12.0587 17.0833 11.9383V7.75001C17.0833 7.5953 17.0219 7.44692 16.9125 7.33753C16.8031 7.22813 16.6547 7.16667 16.5 7.16667C16.3453 7.16667 16.1969 7.22813 16.0875 7.33753C15.9781 7.44692 15.9167 7.5953 15.9167 7.75001V11.9383C15.5788 12.061 15.2869 12.2846 15.0807 12.5789C14.8744 12.8732 14.7637 13.2239 14.7637 13.5833C14.7637 13.9427 14.8744 14.2934 15.0807 14.5877C15.2869 14.8821 15.5788 15.1057 15.9167 15.2283V18.25C15.9167 18.4047 15.9781 18.5531 16.0875 18.6625C16.1969 18.7719 16.3453 18.8333 16.5 18.8333C16.6547 18.8333 16.8031 18.7719 16.9125 18.6625C17.0219 18.5531 17.0833 18.4047 17.0833 18.25V15.2283C17.4237 15.108 17.7186 14.8853 17.9274 14.5908C18.1363 14.2963 18.249 13.9444 18.25 13.5833ZM16.5 14.1667C16.3846 14.1667 16.2718 14.1325 16.1759 14.0684C16.08 14.0043 16.0052 13.9132 15.9611 13.8066C15.9169 13.7 15.9054 13.5827 15.9279 13.4695C15.9504 13.3564 16.0059 13.2524 16.0875 13.1709C16.1691 13.0893 16.273 13.0337 16.3862 13.0112C16.4993 12.9887 16.6166 13.0003 16.7232 13.0444C16.8298 13.0886 16.9209 13.1633 16.985 13.2593C17.0491 13.3552 17.0833 13.468 17.0833 13.5833C17.0833 13.738 17.0219 13.8864 16.9125 13.9958C16.8031 14.1052 16.6547 14.1667 16.5 14.1667Z" fill="#343333"/>
<path d="M14.75 8.91667C14.7509 8.59563 14.6635 8.28053 14.4973 8.00586C14.3311 7.73118 14.0925 7.50751 13.8078 7.35933C13.523 7.21115 13.2029 7.14416 12.8826 7.1657C12.5623 7.18725 12.254 7.29649 11.9916 7.48147C11.7293 7.66645 11.5228 7.92005 11.3949 8.21451C11.267 8.50897 11.2225 8.83294 11.2664 9.15096C11.3103 9.46899 11.4408 9.76882 11.6437 10.0176C11.8466 10.2664 12.114 10.4547 12.4167 10.5617V18.25C12.4167 18.4047 12.4781 18.5531 12.5875 18.6625C12.6969 18.7719 12.8453 18.8333 13 18.8333C13.1547 18.8333 13.3031 18.7719 13.4125 18.6625C13.5219 18.5531 13.5833 18.4047 13.5833 18.25V10.5617C13.9237 10.4413 14.2186 10.2186 14.4274 9.92413C14.6363 9.62962 14.749 9.27772 14.75 8.91667ZM13 9.50001C12.8846 9.50001 12.7718 9.46579 12.6759 9.4017C12.58 9.3376 12.5052 9.2465 12.4611 9.1399C12.4169 9.03331 12.4054 8.91603 12.4279 8.80287C12.4504 8.68971 12.5059 8.58577 12.5875 8.50419C12.6691 8.42261 12.773 8.36706 12.8862 8.34455C12.9993 8.32204 13.1166 8.33359 13.2232 8.37774C13.3298 8.42189 13.4209 8.49666 13.485 8.59259C13.5491 8.68852 13.5833 8.8013 13.5833 8.91667C13.5833 9.07138 13.5219 9.21976 13.4125 9.32915C13.3031 9.43855 13.1547 9.50001 13 9.50001Z" fill="#343333"/>
</svg>
